<svg id="Layer_1" data-name="Layer 1" xmlns="http://www.w3.org/2000/svg" viewBox="0 0 900 500"><defs><style>.cls-1{fill:#0c60f0;}</style></defs><title>UpLift_Logo 900x500 Transparent</title><rect class="cls-1" x="507.22" y="72.07" width="50.36" height="306.45" rx="5.26" ry="5.26"/><rect class="cls-1" x="587.29" y="82.66" width="50.36" height="50.36" rx="5.26" ry="5.26"/><rect class="cls-1" x="587.29" y="161.41" width="50.36" height="217.12" rx="5.26" ry="5.26"/><path class="cls-1" d="M668.15,139.77q0-35.67,19.76-52.53,19.27-15.66,48.43-15.67h27.28a5.26,5.26,0,0,1,5.25,5.26v37a5.25,5.25,0,0,1-5.25,5.25H740.2q-22.65-.72-21.69,20.73v65.49a5.27,5.27,0,0,0,5.26,5.26h39.85a5.25,5.25,0,0,1,5.25,5.25v38.32a5.26,5.26,0,0,1-5.25,5.26H723.77a5.26,5.26,0,0,0-5.26,5.26V373a5.25,5.25,0,0,1-5.26,5.25H673.41a5.25,5.25,0,0,1-5.26-5.25V139.77Z"/><path class="cls-1" d="M799.27,238.68V76.83a5.27,5.27,0,0,1,5.26-5.26h39.85a5.27,5.27,0,0,1,5.26,5.26V205.44a5.26,5.26,0,0,0,5.26,5.26h39.84A5.25,5.25,0,0,1,900,216v38.32a5.26,5.26,0,0,1-5.26,5.26H854.9a5.25,5.25,0,0,0-5.26,5.26V310q-1,21.45,21.69,20.72h23.41A5.26,5.26,0,0,1,900,336v37a5.25,5.25,0,0,1-5.26,5.25H867.47q-29.16,0-48.44-15.66Q799.28,345.67,799.27,310V238.68Z"/><path class="cls-1" d="M376.75,162.33h-92.5a5,5,0,0,0-5,5v272a5,5,0,0,0,5,5h42.2a5,5,0,0,0,5-5V378.66h45.31A100.83,100.83,0,0,0,477.58,277.83V263.16A100.83,100.83,0,0,0,376.75,162.33ZM423,277.83a46.29,46.29,0,0,1-46.29,46.29h-45V216.87h45A46.28,46.28,0,0,1,423,263.16Z"/><path class="cls-1" d="M176.15,305.45q-20.24,19.77-51.33,19.76T74,305.45q-20.25-18.79-20.72-54.7V76.82A5.26,5.26,0,0,0,48,71.57H5.26A5.25,5.25,0,0,0,0,76.82V256.54Q.48,312,36.63,344.49q35.42,33.5,88.19,34,53.75-.5,88.92-34,34.94-32.53,35.91-87.95V124.83L223,98.2,196.39,71.57V250.75Q195.91,286.66,176.15,305.45Z"/><polyline class="cls-1" points="215.24 55.69 279.26 55.69 242.39 82.84"/><polyline class="cls-1" points="279.26 119.72 279.26 55.69 250.69 91.15"/></svg>